<?xml version="1.0" standalone="no"?>
<!DOCTYPE svg PUBLIC "-//W3C//DTD SVG 20010904//EN"
 "http://www.w3.org/TR/2001/REC-SVG-20010904/DTD/svg10.dtd">
<svg version="1.0" xmlns="http://www.w3.org/2000/svg"
 width="1024.000000pt" height="1024.000000pt" viewBox="0 0 1024.000000 1024.000000"
 preserveAspectRatio="xMidYMid meet">

<g transform="translate(0.000000,1024.000000) scale(0.100000,-0.100000)"
fill="#000000" stroke="none">
<path d="M7375 9224 c-27 -42 -57 -92 -66 -110 l-15 -34 -18 38 c-10 20 -41
67 -69 105 -48 62 -55 67 -90 67 -40 0 -77 -14 -77 -29 0 -5 40 -62 88 -127
48 -66 91 -124 95 -131 8 -12 -49 -89 -135 -180 -26 -28 -48 -57 -48 -62 0
-21 40 -51 68 -51 35 0 105 70 155 153 l34 57 62 -100 63 -100 48 0 c93 0 88
27 -29 175 -39 50 -71 95 -71 102 0 7 40 72 89 145 50 73 87 136 83 140 -4 4
-32 10 -62 13 l-55 5 -50 -76z"/>
<path d="M2169 9284 c-25 -8 -29 -47 -29 -306 l0 -240 -31 -29 c-41 -38 -71
-37 -129 6 -26 19 -52 35 -57 35 -17 0 -73 -66 -73 -86 0 -30 27 -62 73 -86
33 -18 59 -23 117 -23 105 0 161 34 213 130 21 39 22 49 20 314 -1 150 -3 275
-5 277 -7 6 -83 13 -99 8z"/>
<path d="M7689 9283 c-12 -3 -18 -21 -23 -71 -8 -86 -8 -455 0 -476 4 -12 20
-16 54 -16 l48 0 7 136 c4 74 5 153 2 175 -3 21 -1 37 3 34 5 -3 35 -42 67
-88 65 -92 111 -147 124 -147 15 0 49 44 94 120 24 41 55 89 69 105 l25 30 2
-135 c0 -74 4 -157 7 -185 l7 -50 53 -3 52 -3 0 290 0 291 -54 0 c-50 0 -56
-3 -77 -32 -13 -18 -59 -81 -103 -140 -75 -101 -80 -106 -91 -85 -6 12 -38 58
-70 102 -31 44 -69 97 -84 117 -22 31 -32 37 -61 36 -19 0 -42 -2 -51 -5z"/>
<path d="M8430 9021 c0 -148 3 -276 6 -285 5 -14 31 -16 189 -16 199 0 195 -1
195 59 0 46 -14 51 -141 51 -65 0 -120 3 -123 8 -2 4 -8 107 -12 230 l-7 222
-53 0 -54 0 0 -269z"/>
<path d="M4524 9203 c-49 -43 -127 -114 -174 -158 -47 -45 -114 -105 -150
-135 -149 -126 -379 -332 -437 -392 -73 -77 -86 -116 -57 -175 17 -34 35 -46
189 -124 197 -99 447 -232 590 -314 165 -94 225 -111 284 -80 47 24 54 57 50
238 l-4 162 120 22 c260 47 477 48 720 3 153 -28 225 -49 428 -124 235 -87
236 -87 363 7 55 40 119 85 144 99 59 34 98 77 105 113 15 83 -233 357 -450
497 -174 112 -346 181 -573 228 -259 54 -527 59 -809 15 -51 -8 -96 -15 -100
-15 -5 0 -8 34 -8 76 0 73 -1 77 -33 105 -24 21 -42 29 -71 29 -34 0 -50 -10
-127 -77z m99 -264 c3 -50 8 -93 10 -96 3 -2 76 12 163 31 262 58 470 67 724
31 131 -19 336 -77 434 -124 204 -95 506 -345 506 -419 0 -66 -63 -138 -110
-127 -14 4 -86 31 -160 62 -199 81 -234 93 -358 119 -294 63 -574 79 -787 45
-139 -22 -409 -72 -413 -76 -2 -1 -4 -74 -5 -162 l-2 -159 -75 40 c-41 22
-133 73 -205 113 -71 41 -187 103 -257 138 -71 36 -128 69 -128 74 0 5 26 31
58 57 31 27 100 89 152 139 52 50 140 130 195 177 55 47 131 118 170 157 38
39 72 71 76 71 3 0 9 -41 12 -91z"/>
<path d="M2378 9249 c-10 -5 -18 -16 -18 -24 0 -14 44 -79 117 -170 23 -29 58
-76 78 -104 l37 -51 -48 -72 c-27 -39 -67 -88 -88 -107 -60 -55 -86 -83 -86
-92 0 -5 19 -22 42 -39 61 -45 155 -40 186 10 14 23 -12 97 -39 105 -16 5 -13
11 18 54 l36 48 51 -51 c81 -82 116 -106 153 -106 30 0 33 3 33 29 0 18 -13
47 -35 75 -19 25 -51 67 -70 92 -19 25 -35 52 -35 59 0 13 121 198 172 264 38
49 14 81 -61 81 -46 0 -66 -21 -120 -125 -17 -33 -40 -75 -50 -93 l-20 -34
-17 34 c-28 55 -123 186 -151 208 -28 22 -58 25 -85 9z"/>
<path d="M6942 8249 c-55 -28 -76 -67 -66 -122 3 -23 31 -112 61 -197 116
-325 155 -449 183 -580 16 -74 34 -160 41 -190 22 -104 54 -140 125 -140 27 0
51 7 68 21 25 19 26 25 26 110 l0 89 63 -48 c167 -127 349 -334 456 -520 55
-96 151 -308 151 -333 0 -5 -39 -20 -87 -34 -148 -44 -177 -57 -205 -86 -34
-36 -38 -100 -9 -138 20 -27 149 -134 291 -242 115 -88 250 -224 375 -379 109
-135 160 -185 196 -193 41 -10 96 11 123 46 22 29 121 263 261 619 69 174 135
303 188 371 51 64 67 108 56 156 -16 73 -69 86 -229 55 -45 -8 -88 -13 -95
-10 -7 2 -15 19 -18 38 -3 18 -28 92 -57 163 -165 418 -440 791 -786 1069
-251 201 -490 332 -786 431 -202 67 -265 76 -326 44z m360 -274 c177 -68 231
-93 336 -156 290 -173 547 -400 700 -617 200 -284 295 -473 371 -737 21 -75
41 -138 43 -141 2 -2 43 1 91 7 138 17 136 20 72 -91 -61 -106 -106 -206 -161
-360 -20 -58 -60 -163 -87 -235 -42 -108 -52 -126 -61 -111 -72 120 -279 334
-436 449 -58 43 -118 89 -135 103 -28 24 -28 27 -12 39 10 7 70 28 134 46 63
19 118 40 120 47 7 16 -46 183 -99 317 -59 148 -123 266 -211 389 -191 267
-353 423 -543 522 -67 35 -68 35 -79 14 -10 -19 -13 -16 -27 32 -67 219 -94
299 -114 340 -27 52 -58 137 -69 182 -5 25 -4 28 12 21 10 -4 80 -31 155 -60z"/>
<path d="M3239 8240 c-346 -72 -620 -213 -989 -511 -247 -199 -483 -502 -626
-804 -49 -104 -120 -298 -144 -393 -9 -35 -15 -42 -28 -37 -55 22 -171 45
-199 40 -45 -8 -73 -47 -73 -101 0 -34 15 -71 70 -176 38 -73 96 -198 128
-278 179 -437 294 -669 347 -702 66 -40 110 -18 201 99 164 213 296 350 457
476 44 34 124 97 178 140 55 43 105 89 111 102 15 34 1 94 -31 126 -17 16 -52
34 -87 44 -32 9 -96 28 -140 42 l-81 25 53 125 c58 135 138 290 187 363 92
135 246 303 400 437 56 49 59 50 86 37 22 -11 35 -12 62 -3 37 12 85 59 95 92
9 33 76 181 165 367 81 171 149 356 149 407 0 94 -101 123 -291 83z m45 -217
c-3 -16 -21 -57 -38 -93 -66 -134 -197 -386 -209 -400 -6 -9 -40 -33 -73 -53
-169 -102 -418 -340 -525 -502 -105 -158 -134 -206 -167 -270 -80 -161 -196
-480 -178 -493 6 -5 79 -28 162 -52 l151 -43 -120 -90 c-66 -49 -143 -104
-171 -122 -83 -54 -129 -107 -311 -363 -17 -23 -35 -22 -35 3 0 20 -191 467
-244 571 -25 49 -64 122 -87 163 l-41 74 85 -6 c47 -4 97 -11 112 -17 19 -7
27 -6 29 3 103 386 205 607 405 876 143 193 316 358 564 540 143 105 361 210
552 267 141 41 147 42 139 7z"/>
<path d="M5158 7855 c-48 -33 -62 -73 -38 -112 22 -37 67 -73 90 -73 23 0 79
39 103 72 26 35 14 66 -44 108 -51 36 -64 37 -111 5z"/>
<path d="M4101 7280 c-194 -21 -403 -201 -474 -409 l-22 -66 -3 -1557 c-3
-1685 -4 -1625 51 -1748 65 -145 204 -272 358 -326 l84 -29 1085 2 c1203 2
1162 0 1305 68 136 65 230 166 292 315 26 62 27 74 30 270 2 113 0 673 -4
1245 -8 985 -10 1042 -27 1075 -49 91 -75 118 -967 987 -97 94 -152 140 -190
158 l-54 25 -695 -1 c-382 -1 -728 -5 -769 -9z m1171 -189 l137 -1 3 -437 3
-438 26 -55 c30 -63 100 -139 156 -166 35 -17 75 -19 519 -22 l481 -4 -1 -122
c-1 -66 0 -575 2 -1131 3 -1128 6 -1079 -66 -1184 -45 -66 -129 -135 -197
-160 -47 -18 -104 -19 -1125 -22 l-1075 -4 -60 23 c-124 47 -206 134 -245 259
-20 64 -20 91 -20 1629 0 1515 1 1565 19 1614 32 83 114 163 202 197 24 9 82
19 129 22 73 6 654 7 1112 2z m645 -371 c131 -129 299 -296 373 -371 74 -75
146 -143 159 -152 14 -9 23 -18 20 -19 -2 -2 -179 -1 -394 2 -414 6 -441 9
-450 54 -10 51 -15 385 -9 576 l7 211 28 -33 c15 -18 134 -139 266 -268z"/>
<path d="M4444 5426 c-31 -31 -36 -41 -30 -69 3 -17 20 -44 36 -59 l30 -28
733 0 c813 0 764 -4 793 66 16 38 8 68 -26 99 -22 20 -39 20 -761 23 l-739 4
-36 -36z"/>
<path d="M4443 4974 c-41 -40 -42 -74 -5 -114 l27 -30 725 -4 c399 -3 738 -2
754 1 65 13 87 117 33 157 -28 21 -33 21 -765 22 l-737 1 -32 -33z"/>
<path d="M4439 4521 c-20 -20 -29 -39 -29 -61 0 -22 9 -41 29 -61 l29 -29 742
0 742 0 29 31 c40 43 40 88 -2 123 l-31 26 -740 0 -740 0 -29 -29z"/>
<path d="M4564 4103 c-86 -4 -93 -5 -119 -33 -41 -43 -40 -93 3 -131 l33 -29
735 2 736 3 29 33 c38 42 39 84 1 121 l-27 28 -244 6 c-236 7 -961 6 -1147 0z"/>
<path d="M7414 6500 c-29 -11 -84 -77 -84 -101 0 -31 35 -74 76 -94 35 -16 36
-16 74 10 74 52 87 96 43 145 -31 34 -78 51 -109 40z"/>
<path d="M2932 6467 c-50 -51 -37 -122 28 -161 46 -27 85 -21 125 19 52 53 43
104 -26 150 -53 35 -88 33 -127 -8z"/>
<path d="M2534 5476 c-39 -39 -44 -47 -34 -65 6 -12 64 -76 129 -143 l118
-122 -124 -121 c-140 -137 -147 -152 -88 -204 20 -17 42 -31 49 -31 16 0 187
155 224 203 15 20 31 36 36 37 4 0 62 -52 128 -115 88 -85 126 -115 144 -115
31 0 84 53 84 83 0 13 -46 67 -125 146 l-125 127 125 124 c69 69 125 131 125
138 0 23 -66 82 -92 82 -18 0 -56 -32 -140 -115 l-115 -115 -114 113 c-151
151 -149 150 -205 93z"/>
<path d="M7285 5464 c-14 -15 -25 -37 -25 -50 0 -26 76 -122 164 -207 l60 -57
-81 -83 c-84 -86 -163 -182 -163 -199 0 -19 59 -68 82 -68 15 1 57 32 118 87
52 47 124 105 160 129 36 23 78 56 94 73 26 28 28 32 16 60 -6 16 -20 37 -31
47 -14 12 -16 20 -8 30 7 9 6 21 -6 43 -17 35 -48 41 -64 14 -8 -16 -25 -3
-124 95 -126 124 -148 134 -192 86z"/>
<path d="M1073 5219 c-18 -11 -42 -36 -54 -55 -18 -30 -20 -39 -9 -64 12 -29
92 -110 108 -110 16 0 122 118 122 136 0 23 -93 114 -116 114 -10 0 -33 -10
-51 -21z"/>
<path d="M9237 5195 c-53 -52 -59 -77 -24 -121 26 -35 69 -73 80 -74 5 0 31
22 59 48 67 64 68 91 3 149 -26 24 -52 43 -59 43 -6 0 -33 -20 -59 -45z"/>
<path d="M1755 5040 c-11 -4 -32 -21 -47 -37 -30 -31 -141 -257 -211 -429 -25
-62 -68 -156 -95 -210 -27 -55 -72 -151 -101 -215 -29 -64 -64 -127 -78 -140
-57 -54 -68 -115 -28 -154 23 -24 29 -25 158 -25 l133 0 12 -59 c7 -33 39
-120 71 -195 184 -427 440 -751 814 -1029 248 -184 339 -234 577 -316 193 -68
370 -111 449 -111 45 0 57 4 82 29 47 48 41 88 -47 313 -109 279 -129 341
-154 479 -12 68 -25 142 -30 164 -5 22 -11 52 -15 68 -13 63 -87 87 -155 52
-44 -23 -52 -46 -45 -128 l6 -72 -23 26 c-13 14 -52 48 -88 76 -87 68 -242
230 -315 328 -84 113 -180 273 -236 390 -72 153 -81 136 79 167 79 16 148 36
162 46 39 29 64 83 56 118 -9 35 -109 134 -191 188 -71 48 -280 214 -358 286
-72 66 -155 167 -235 287 -74 111 -95 125 -147 103z m130 -400 c33 -41 85
-100 117 -131 58 -57 243 -202 348 -274 32 -22 59 -42 59 -45 0 -3 -39 -15
-87 -27 -211 -55 -217 -57 -220 -82 -6 -42 90 -293 173 -448 163 -307 470
-644 683 -748 80 -39 87 -34 85 55 -2 91 -1 89 72 -155 68 -224 118 -367 146
-414 11 -18 18 -36 15 -38 -3 -3 -56 12 -118 33 -348 115 -652 302 -913 560
-147 146 -220 235 -325 395 -136 207 -179 309 -265 623 l-16 58 -68 -6 c-37
-4 -86 -4 -109 0 l-42 7 24 28 c14 16 34 53 45 83 11 31 44 101 72 158 64 127
155 335 209 473 l11 30 22 -30 c12 -16 49 -64 82 -105z"/>
<path d="M3168 2413 c7 -3 16 -2 19 1 4 3 -2 6 -13 5 -11 0 -14 -3 -6 -6z"/>
<path d="M8594 5036 c-18 -8 -47 -36 -65 -63 -62 -91 -227 -298 -270 -339 -24
-23 -143 -116 -265 -207 -122 -91 -231 -177 -243 -192 -32 -41 -29 -106 7
-145 23 -26 47 -35 160 -64 73 -19 136 -36 138 -39 14 -14 -125 -306 -201
-422 -95 -145 -229 -294 -411 -456 l-119 -106 0 85 c0 80 -1 86 -26 104 -35
26 -95 26 -121 1 -20 -20 -74 -205 -108 -368 -22 -105 -55 -203 -141 -410 -71
-170 -78 -218 -40 -259 59 -62 197 -47 504 55 247 82 368 145 606 316 290 209
460 379 629 631 145 214 259 467 281 622 l6 45 136 -3 c173 -5 199 5 199 79 0
23 -10 50 -27 75 -15 21 -42 62 -61 89 -68 99 -247 476 -358 754 -60 151 -93
207 -130 221 -32 13 -42 12 -80 -4z m92 -436 c71 -172 235 -508 271 -556 38
-51 33 -53 -85 -47 l-107 6 -32 -126 c-61 -240 -149 -430 -291 -627 -158 -219
-247 -313 -457 -482 -175 -141 -212 -166 -340 -235 -135 -73 -285 -135 -402
-167 -48 -13 -96 -27 -105 -31 -25 -10 -23 2 16 86 37 82 78 208 100 315 8 38
21 83 28 99 12 28 17 30 63 30 90 1 205 77 389 254 196 191 332 380 438 611
69 151 137 356 122 369 -5 4 -64 23 -132 41 -133 36 -168 53 -142 69 8 5 42
31 76 58 33 26 109 86 169 133 157 123 182 147 265 259 41 55 79 99 83 98 4
-1 37 -72 73 -157z"/>
<path d="M2975 3916 c-38 -17 -85 -71 -85 -98 0 -27 81 -108 108 -108 29 0
105 61 117 94 11 32 -6 69 -45 97 -37 26 -61 30 -95 15z"/>
<path d="M7368 3880 c-35 -35 -40 -44 -34 -71 8 -43 40 -84 75 -99 27 -11 35
-9 65 10 41 25 76 70 76 97 -1 25 -28 57 -70 82 -49 29 -67 27 -112 -19z"/>
<path d="M5116 2629 c-61 -54 -62 -84 -5 -139 50 -49 80 -58 114 -36 31 20 85
93 85 114 0 9 -20 35 -45 59 -59 56 -87 57 -149 2z"/>
<path d="M5633 2549 c-64 -41 -67 -54 -73 -274 l-5 -200 -95 -18 c-132 -24
-352 -32 -475 -18 -220 26 -468 98 -665 192 -163 79 -146 79 -264 2 -139 -91
-320 -239 -342 -278 -17 -32 -17 -35 1 -82 14 -37 44 -74 137 -166 295 -289
516 -397 994 -484 128 -23 177 -27 344 -27 187 -1 295 11 436 50 19 5 22 0 28
-62 10 -102 45 -154 103 -154 36 0 83 36 273 210 58 53 184 166 280 252 96 86
221 200 278 255 99 95 102 99 102 141 0 58 -46 105 -168 172 -51 28 -162 94
-247 148 -86 53 -203 126 -261 162 -58 36 -149 95 -202 133 -104 73 -128 79
-179 46z m362 -401 c118 -76 319 -195 393 -232 28 -14 52 -30 52 -34 0 -13
-121 -127 -280 -262 -85 -73 -203 -176 -262 -231 -58 -54 -109 -99 -112 -99
-3 0 -6 48 -6 106 0 84 -3 104 -12 96 -18 -14 -134 -47 -263 -74 -95 -20 -138
-23 -320 -23 -221 1 -292 10 -490 60 -300 76 -547 214 -708 394 -90 100 -88
109 38 179 39 21 80 44 92 52 20 13 32 10 130 -33 137 -59 225 -89 388 -132
317 -84 564 -100 805 -52 74 14 167 31 205 37 125 18 112 -10 107 221 l-5 201
74 -55 c41 -30 119 -83 174 -119z"/>
<path d="M1809 2162 c-67 -22 -157 -80 -199 -128 -73 -83 -117 -228 -107 -347
6 -77 45 -176 95 -242 105 -138 320 -209 476 -155 171 59 255 149 301 325 20
79 19 116 -6 205 -42 151 -118 246 -252 314 -70 36 -87 40 -165 43 -64 2 -102
-2 -143 -15z m-18 -141 c-12 -16 -28 -46 -36 -65 -18 -42 -33 -45 -63 -13 -21
22 -21 24 -5 39 26 23 117 77 121 73 2 -2 -5 -17 -17 -34z m125 -60 l7 -71
-72 0 -73 0 42 58 c23 31 49 69 58 84 22 35 30 21 38 -71z m113 15 l49 -74
-30 -6 c-17 -3 -46 -6 -64 -6 l-34 0 -2 58 -1 57 -7 -60 -7 -60 -1 52 c-2 55
5 86 18 78 5 -3 11 4 15 15 3 11 8 20 10 20 2 0 26 -33 54 -74z m145 3 c19
-18 19 -19 1 -39 -10 -11 -24 -20 -31 -20 -11 0 -84 110 -84 126 0 9 92 -46
114 -67z m-478 -193 l-7 -46 -55 0 c-30 0 -54 4 -54 8 0 5 9 35 20 67 11 32
20 67 20 77 0 15 8 11 41 -21 40 -38 41 -41 35 -85z m574 57 c13 -38 25 -74
28 -80 3 -10 -12 -13 -56 -13 l-60 0 -11 48 c-7 35 -7 48 2 51 6 2 23 16 37
31 14 15 28 28 31 29 3 0 16 -29 29 -66z m-270 -37 c51 5 94 6 96 2 11 -18 16
-136 6 -142 -6 -3 -85 -3 -176 0 l-166 7 0 27 c0 15 3 47 6 71 l6 44 69 -9
c43 -6 102 -6 159 0z m-302 -188 c13 -34 13 -39 -9 -69 l-22 -32 -20 24 c-16
20 -67 112 -67 121 0 2 23 1 52 -2 49 -5 53 -7 66 -42z m578 -12 c-26 -67 -44
-106 -51 -106 -2 0 -13 16 -26 36 -23 37 -28 89 -10 107 9 9 61 22 98 26 9 1
5 -19 -11 -63z m-200 -31 c-8 -22 -130 -195 -137 -195 -19 0 -63 50 -103 118
-25 43 -46 82 -46 85 0 4 66 7 146 7 125 0 145 -2 140 -15z m-288 -115 c23
-37 27 -50 16 -50 -23 0 -66 25 -94 55 l-25 26 25 19 c29 22 36 18 78 -50z
m382 44 c26 -22 29 -29 18 -42 -14 -16 -129 -74 -135 -68 -2 2 7 19 20 39 13
19 30 49 37 66 15 38 20 38 60 5z"/>
<path d="M2656 1902 c-3 -5 -8 -131 -12 -280 l-7 -272 186 0 187 0 0 49 0 48
-52 7 c-29 3 -85 6 -124 6 l-71 0 -6 68 c-4 37 -7 117 -7 178 0 61 -3 132 -6
158 -7 46 -7 46 -45 46 -21 0 -40 -4 -43 -8z"/>
<path d="M7074 1890 c-39 -15 -36 -29 19 -93 30 -34 78 -98 108 -142 l53 -80
4 -102 4 -101 54 -4 54 -3 0 109 0 110 56 85 c30 47 73 114 95 149 l39 63 -26
9 c-14 6 -40 10 -58 10 -28 0 -36 -6 -66 -57 -40 -68 -100 -158 -105 -158 -2
0 -23 29 -46 65 -71 110 -107 150 -137 149 -15 0 -37 -4 -48 -9z"/>
<path d="M8558 1888 c-8 -7 -38 -47 -67 -88 -58 -84 -109 -146 -114 -139 -2 2
-22 31 -44 64 -22 33 -59 84 -82 113 -41 51 -42 52 -96 52 l-55 0 2 -257 3
-258 48 -3 c43 -3 47 -1 48 20 1 13 4 86 8 163 l6 139 62 -90 c34 -50 68 -96
77 -103 32 -27 50 -11 168 156 13 18 26 33 29 33 3 0 9 -66 12 -147 3 -82 9
-156 13 -166 5 -14 16 -17 53 -15 l46 3 3 215 c2 118 0 239 -3 268 l-6 52 -48
0 c-26 0 -54 -6 -63 -12z"/>
<path d="M8802 1643 l3 -258 175 0 175 1 0 54 0 55 -121 3 -121 3 -6 112 c-4
62 -7 144 -7 184 0 97 -3 103 -56 103 l-44 0 2 -257z"/>
<path d="M7685 1838 c-10 -29 -50 -118 -88 -198 -68 -143 -97 -218 -97 -253 0
-15 7 -18 51 -15 l52 3 20 58 21 57 72 0 c39 0 91 3 116 6 l45 6 22 -53 c34
-84 34 -84 77 -81 22 2 43 7 48 13 14 13 -17 105 -94 269 -37 80 -75 166 -85
193 l-18 47 -61 0 -62 0 -19 -52z m100 -133 c13 -31 34 -69 45 -85 l21 -30
-80 0 c-45 0 -81 2 -81 4 0 2 14 33 30 69 17 37 30 73 30 82 0 27 10 16 35
-40z"/>
<path d="M1774 1156 c-6 -15 29 -72 84 -136 l29 -35 -47 -55 c-76 -88 -84
-120 -30 -120 22 0 39 12 75 55 26 30 50 55 54 55 3 0 23 -25 45 -56 31 -45
42 -55 60 -50 11 3 27 6 34 6 23 0 12 23 -44 92 -66 82 -66 88 6 171 27 32 50
63 50 68 0 5 -19 9 -43 9 -41 0 -43 -2 -76 -57 l-34 -56 -21 29 c-51 70 -78
94 -107 94 -17 0 -32 -6 -35 -14z"/>
<path d="M2173 1163 c-10 -3 -13 -47 -13 -168 0 -160 0 -163 23 -169 45 -12
46 -10 49 95 l3 100 38 -65 c21 -36 41 -66 46 -66 10 0 42 36 75 85 l26 40 0
-104 c0 -102 0 -103 23 -97 12 3 29 6 37 6 13 0 15 23 12 162 -3 165 -6 177
-43 178 -14 0 -101 -109 -111 -139 -3 -9 -28 16 -67 67 -59 78 -70 87 -98 75z"/>
<path d="M6960 1064 c0 -140 4 -154 41 -154 28 0 29 1 23 39 l-6 38 43 6 c89
12 127 83 77 141 -20 24 -33 28 -100 33 l-78 6 0 -109z m131 30 c17 -20 1 -48
-31 -52 -26 -4 -40 12 -40 46 0 18 6 22 29 22 16 0 34 -7 42 -16z"/>
<path d="M7212 1038 c3 -127 4 -131 25 -134 20 -3 23 2 29 48 l7 52 47 -52
c67 -74 128 -69 65 6 -30 36 -31 44 -5 67 25 23 26 72 2 103 -19 25 -73 41
-135 42 l-38 0 3 -132z m128 48 c0 -30 -22 -49 -52 -44 -18 2 -24 10 -26 36
-3 31 -2 32 37 32 36 0 41 -3 41 -24z"/>
<path d="M7524 1156 c-17 -8 -44 -30 -59 -50 -24 -31 -27 -43 -22 -82 4 -36
13 -55 41 -83 32 -32 42 -36 87 -36 46 0 54 3 90 42 33 36 39 49 39 87 0 50
-30 95 -81 121 -34 18 -55 18 -95 1z m92 -69 c23 -20 26 -28 20 -60 -7 -37
-37 -67 -67 -67 -9 0 -28 12 -43 26 -34 35 -34 76 0 103 34 27 57 26 90 -2z"/>
<path d="M7760 1146 c-23 -61 -9 -130 28 -145 96 -36 122 -21 122 73 0 77 -10
88 -85 94 -52 4 -55 3 -65 -22z m98 -68 c3 -24 0 -28 -22 -28 -30 0 -57 25
-49 46 4 10 16 14 37 12 25 -2 32 -8 34 -30z"/>
<path d="M8038 1162 l-76 -3 -7 -40 c-4 -22 -4 -80 0 -127 l7 -87 84 3 c81 3
84 4 84 28 0 22 -3 24 -55 24 -52 0 -55 1 -55 24 0 23 4 25 53 28 48 3 52 5
52 28 0 23 -4 25 -57 28 -49 3 -58 6 -58 22 0 15 11 20 66 25 58 7 65 10 62
28 -4 24 -2 24 -100 19z"/>
<path d="M8186 1139 c-3 -17 -6 -76 -6 -130 0 -89 2 -98 20 -104 30 -9 40 2
40 46 0 56 9 53 73 -20 28 -32 42 -37 66 -22 11 7 7 17 -19 50 l-33 40 33 31
c26 25 31 35 26 58 -4 15 -20 39 -37 55 -26 23 -37 27 -93 27 -63 0 -64 0 -70
-31z m128 -45 c9 -8 16 -20 16 -25 0 -14 -39 -26 -67 -21 -18 3 -23 11 -23 33
0 25 4 29 29 29 16 0 37 -7 45 -16z"/>
<path d="M8440 1040 l0 -130 35 0 35 0 0 130 0 130 -35 0 -35 0 0 -130z"/>
<path d="M8560 1140 c0 -28 3 -30 35 -30 l35 0 0 -100 0 -100 30 0 30 0 0 103
0 103 35 -4 c32 -4 35 -2 35 21 0 31 -19 37 -122 37 l-78 0 0 -30z"/>
<path d="M9083 1158 c-27 -13 -58 -70 -50 -92 4 -9 31 -28 62 -43 65 -32 71
-58 15 -57 -19 0 -43 4 -52 8 -26 12 -24 -26 2 -49 33 -30 89 -23 122 14 49
55 28 116 -43 127 -33 6 -40 10 -37 28 3 18 10 21 53 21 37 0 50 4 50 15 0 32
-77 50 -122 28z"/>
<path d="M8810 1035 l0 -125 95 0 c95 0 95 0 95 25 0 24 -2 25 -64 25 -49 0
-65 4 -70 16 -10 27 -7 34 18 34 58 0 86 12 86 36 0 22 -4 24 -55 24 -48 0
-55 3 -55 20 0 17 8 19 68 22 61 3 67 5 70 26 3 21 1 22 -92 22 l-96 0 0 -125z"/>
<path d="M2582 988 l3 -163 108 -3 107 -3 0 36 0 35 -56 0 c-93 0 -94 2 -94
140 l0 120 -35 0 -35 0 2 -162z"/>
<path d="M7744 974 c-9 -35 6 -58 40 -62 20 -3 28 2 35 20 6 15 5 24 -3 27 -6
2 -23 12 -38 23 l-27 19 -7 -27z"/>
</g>
</svg>
